<?xml version="1.0" encoding="UTF-8" standalone="no"?>
<svg
   height="24"
   viewBox="0 -960 960 960"
   width="24"
   version="1.1"
   id="svg1"
   sodipodi:docname="back.svg"
   inkscape:version="1.3.1 (9b9bdc1480, 2023-11-25, custom)"
   xmlns:inkscape="http://www.inkscape.org/namespaces/inkscape"
   xmlns:sodipodi="http://sodipodi.sourceforge.net/DTD/sodipodi-0.dtd"
   xmlns="http://www.w3.org/2000/svg"
   xmlns:svg="http://www.w3.org/2000/svg">
  <defs
     id="defs1" />
  <sodipodi:namedview
     id="namedview1"
     pagecolor="#ffffff"
     bordercolor="#000000"
     borderopacity="0.25"
     inkscape:showpageshadow="2"
     inkscape:pageopacity="0.0"
     inkscape:pagecheckerboard="0"
     inkscape:deskcolor="#d1d1d1"
     inkscape:zoom="39.4"
     inkscape:cx="12.005076"
     inkscape:cy="10.444162"
     inkscape:window-width="1920"
     inkscape:window-height="1011"
     inkscape:window-x="0"
     inkscape:window-y="0"
     inkscape:window-maximized="1"
     inkscape:current-layer="svg1" />
  <path
     d="m 360,-200 q -20,0 -37.5,-9 -17.5,-9 -28.5,-25 L 120,-480 294,-726 q 11,-16 28.5,-25 17.5,-9 37.5,-9 h 400 q 33,0 56.5,23.5 23.5,23.5 23.5,56.5 v 400 q 0,33 -23.5,56.5 Q 793,-200 760,-200 Z m 400,-80 v -400 z m -400,0 H 760 V -680 H 360 l -142,200 z m 96,-40 104,-104 104,104 56,-56 -104,-104 104,-104 -56,-56 -104,104 -104,-104 -56,56 104,104 -104,104 z"
     id="path1"
     style="display:inline;opacity:1;mix-blend-mode:normal;fill:#ffffff" />
</svg>
